<svg width="57" height="49" viewBox="0 0 57 49" fill="none" xmlns="http://www.w3.org/2000/svg">
<path d="M51.362 11.3964C48.2547 11.3964 45.7294 13.922 45.7294 17.0294C45.7294 19.1125 46.8814 20.914 48.5689 21.8871L41.5986 24.3957L30.8269 11.5784C32.789 10.7 34.1656 8.73554 34.1656 6.44875C34.1656 3.34141 31.64 0.816162 28.533 0.816162C25.4294 0.816162 22.9038 3.34175 22.9038 6.44875C22.9038 8.71119 24.253 10.6581 26.189 11.55L15.3957 24.3886L8.42132 21.8816C10.1094 20.9102 11.2618 19.1054 11.2618 17.0256C11.2618 13.9183 8.73621 11.393 5.62921 11.393C2.52558 11.393 0 13.9186 0 17.0256C0 19.6665 1.84066 21.8745 4.29928 22.4773V38.5291V38.7611C4.29928 38.8004 4.31822 38.8291 4.31991 38.8667C4.32363 38.9076 4.3101 38.956 4.31991 38.9969C4.33073 39.0612 4.36354 39.1112 4.38147 39.1735C4.40548 39.236 4.42172 39.2999 4.45114 39.3642C4.4968 39.4566 4.56276 39.5425 4.625 39.6209C4.65544 39.6581 4.66863 39.7065 4.70177 39.7332C7.63121 44.0339 26.2188 44.1729 28.4998 44.1729C30.7812 44.1729 49.3695 44.0406 52.2999 39.7332C52.3321 39.7011 52.3446 39.6551 52.375 39.6209C52.4376 39.5428 52.5015 39.4569 52.5499 39.3642C52.5786 39.3033 52.5945 39.2394 52.6175 39.1735C52.6354 39.1163 52.6693 39.0612 52.6818 38.9969C52.6889 38.956 52.6764 38.9076 52.6818 38.8667C52.6818 38.8295 52.6997 38.8024 52.6997 38.7611V38.5291V22.4773C55.1648 21.8745 57 19.6662 57 17.0256C56.9912 13.922 54.4656 11.3964 51.362 11.3964ZM28.491 41.4332C21.2708 41.4332 15.8449 40.8464 12.2393 40.1344C9.53817 39.603 7.8514 39.0037 7.21315 38.5328C7.66977 38.1977 8.66485 37.7945 10.1849 37.395C11.7793 36.9776 13.9545 36.5674 16.7101 36.2498C19.8796 35.8824 23.8082 35.6328 28.491 35.6328C33.1742 35.6328 37.1035 35.8824 40.2714 36.2498C43.0286 36.567 45.2031 36.9773 46.8013 37.395C48.3172 37.7948 49.3126 38.1977 49.7693 38.5328C49.1324 39.004 47.4487 39.603 44.7462 40.1344C41.1379 40.8464 35.712 41.4332 28.491 41.4332ZM40.9918 33.5957L32.541 30.5563L40.7242 27.6184L46.5388 34.5356C44.8355 34.1274 42.92 33.824 40.9918 33.5957ZM31.0389 32.9307C29.802 32.9002 28.8942 32.8931 28.491 32.8931C28.0872 32.8931 27.1794 32.9002 25.9431 32.9307L28.491 32.0175L31.0389 32.9307ZM15.9903 33.5957C14.057 33.824 12.1456 34.127 10.4423 34.5356L16.2568 27.6184L24.439 30.5563L15.9903 33.5957ZM49.9529 24.303V34.336L43.4748 26.6308L49.9529 24.303ZM25.638 6.45214C25.638 4.85737 26.9365 3.55889 28.5313 3.55889C30.1257 3.55889 31.4208 4.85737 31.4208 6.45214C31.4208 8.04318 30.1257 9.34166 28.5313 9.34166C26.9365 9.34166 25.638 8.04318 25.638 6.45214ZM28.491 13.0659L38.8443 25.3837L28.491 29.1046L18.1371 25.3837L28.491 13.0659ZM13.5083 26.6308L7.03017 34.336V24.303L13.5083 26.6308ZM2.73258 17.0294C2.73258 15.4346 4.02768 14.1361 5.62211 14.1361C7.21687 14.1361 8.51535 15.4346 8.51535 17.0294C8.51535 18.6238 7.21687 19.9189 5.62211 19.9189C4.02734 19.9189 2.73258 18.6238 2.73258 17.0294ZM51.362 19.9189C49.7672 19.9189 48.4688 18.6238 48.4688 17.0294C48.4688 15.4346 49.7672 14.1361 51.362 14.1361C52.9564 14.1361 54.2515 15.4346 54.2515 17.0294C54.2515 18.6238 52.9564 19.9189 51.362 19.9189ZM52.4109 43.6645C52.7423 44.346 52.4572 45.1646 51.7794 45.4981C49.0397 46.8341 40.778 48.184 28.491 48.184C16.3874 48.184 7.8355 46.5608 5.293 45.539C4.59219 45.261 4.25226 44.4563 4.533 43.7538C4.81846 43.0547 5.62177 42.7208 6.31751 42.9938C8.30632 43.7947 16.3373 45.4446 28.4944 45.4446C41.079 45.4446 48.5973 44.0034 50.5807 43.0388C51.2585 42.7012 52.0753 42.983 52.4109 43.6645Z" fill="#C75E90"/>
</svg>
