<svg width="51" height="51" viewBox="0 0 51 51" fill="none" xmlns="http://www.w3.org/2000/svg">
<path d="M44.6238 40.7712V35.0129C44.6472 34.0716 44.3232 33.1545 43.7133 32.4361C41.9933 30.4101 36.0942 29.1141 33.7559 29.6119C31.9331 29.9998 30.6579 31.83 29.4111 33.0743C24.5962 30.3419 20.6096 26.3631 17.8718 21.5578C19.1185 20.3135 20.9524 19.0408 21.3411 17.2216C21.839 14.8915 20.5449 9.03017 18.5329 7.30329C17.8252 6.69588 16.9204 6.36602 15.987 6.37519H10.2174C8.01897 6.37725 6.18998 8.34901 6.39013 10.5595C6.37512 29.6119 21.2501 44.625 40.4312 44.61C42.6536 44.8105 44.6328 42.9724 44.6238 40.7712Z" stroke="white" stroke-width="2.6" stroke-linecap="round" stroke-linejoin="round"/>
</svg>
